<svg xmlns="http://www.w3.org/2000/svg" viewBox="0 0 1000 1000">
    <defs>
        <radialGradient id="c" cx="1772.25" cy="-341.52" fy="-409.149" r="151.52" gradientTransform="matrix(1.17 .59 -.28 .47 -1527.13 -664.3)" gradientUnits="userSpaceOnUse">
            <stop offset=".13" stop-color="#fff"/>
            <stop offset=".29" stop-color="#fff" stop-opacity=".69"/>
            <stop offset=".45" stop-color="#fff" stop-opacity=".4"/>
            <stop offset=".59" stop-color="#fff" stop-opacity=".18"/>
            <stop offset=".69" stop-color="#fff" stop-opacity=".05"/>
            <stop offset=".74" stop-color="#fff" stop-opacity="0"/>
        </radialGradient>
        <radialGradient id="d" cx="570.86" cy="398.43" fx="613.1" fy="841.348" r="444.93" gradientTransform="rotate(39.84 620.329 416.349) scale(1 1.09)" gradientUnits="userSpaceOnUse">
            <stop offset=".86" stop-opacity="0"/>
            <stop offset=".98" stop-opacity=".47"/>
            <stop offset="1"/>
        </radialGradient>
        <linearGradient id="a" x1="484.48" y1="319.34" x2="536.14" y2="785.87" gradientUnits="userSpaceOnUse">
            <stop offset="0" stop-color="#123214"/>
            <stop offset=".46" stop-color="#3e7c37"/>
            <stop offset=".91" stop-color="#5fbb46"/>
        </linearGradient>
        <linearGradient id="b" x1="4812.32" y1="-2121.07" x2="4812.32" y2="-2122.13" gradientTransform="matrix(115.64 0 0 -355.9 -555713.76 -754599.8)" gradientUnits="userSpaceOnUse">
            <stop offset="0" stop-color="#fff" stop-opacity="0"/>
            <stop offset=".64" stop-color="#fff" stop-opacity=".43"/>
            <stop offset="1" stop-color="#fff" stop-opacity=".42"/>
        </linearGradient>
    </defs>
    <circle cx="502.49" cy="490.94" r="401.79" style="fill:#50b651"/>
    <path d="M903.05 489.81c0 222.6-180.45 403.05-403 403.05S97 712.41 97 489.81c0-98.47 2.76-113.11 41.52-169.17 0 0-2 63.32 44.43 101 28.87 23.41 59 6.51 114.15-18.89 59.66-27.5 108.16-45.24 146-40.56 57 7.06 232.69 112.57 324.38 91.56C840.73 437 833 264.3 833 264.3c80 78.12 70.05 130.92 70.05 225.51Z" style="fill-rule:evenodd;opacity:.6629999876022339;isolation:isolate;fill:url(#a)"/>
    <path d="M673 785.86q218.65-205.67 72.69-471.24.74.54 18.06-62.32 77.68 94.07 82.61 232.22-.04 178.94-173.36 301.34Z" style="fill-rule:evenodd;opacity:.5860000252723694;isolation:isolate;fill:url(#b)"/>
    <path d="M603.86 253.13c-70.36-38.94-151.08-117.27-140.35-133.72s150-13.62 220.37 25.32 130.26 155.75 119.54 172.2-129.2-24.86-199.56-63.8Z" style="fill-rule:evenodd;opacity:.7440000176429749;isolation:isolate;fill:url(#c)"/>
    <path d="M665.15 589.89c-58.37 0-105.69-48.67-105.69-108.7S606.78 372.5 665.15 372.5s105.7 48.66 105.7 108.69-47.32 108.7-105.7 108.7Zm.75-34.48c36.43 0 66-33.23 66-74.22S702.33 407 665.9 407s-66 33.23-66 74.21 29.57 74.2 66 74.2ZM447.08 284.98h76.16v303.7h-41.81V318.29h-34.35v-33.31zM390.32 375.59h39.53v253.62c0 23.11-24.31 47.18-48 57.54q-16.8 7.34-62 8.72v-25.23q44.21-4.93 59.68-19.67a59.29 59.29 0 0 0 10.8-28.06V548q-15.85 33.63-39.92 44.59c-16.68 9-50.63 7.52-64.49 0s-34.19-27.32-43.51-56.81c-2.58-8.14-9-30.29-8.33-53.76.6-22.35 8-46 14.15-55.72 10.56-16.6 27.21-37.39 52.43-46.08q18.48-6.37 68.5-4.58v25.09q-37.17-2.51-46.38 2.51c-9.21 5-30 11.17-36.86 56.48s.2 82.39 21.95 94c7.45 4 20.63 8.73 32.81 4.56 23.4-8 45.42-36.53 47.1-55.86q2.54-29.42 2.54-126.83Z" style="fill:#fff;fill-rule:evenodd"/>
    <path d="M890.42 570.48C853.09 750.23 693.81 885.29 503 885.29c-218.53 0-395.69-177.16-395.69-395.69 0-135.76 68.37-255.55 172.55-326.8-84.65 70.2-138.55 176.25-138.55 294.84 0 211.53 171.48 383 383 383 172.26 0 317.94-113.71 366.11-270.16Z" style="fill-rule:evenodd;fill:url(#d)"/>
    <path d="M503 21C244.2 21 34.39 230.8 34.39 489.6S244.2 958.21 503 958.21 971.61 748.4 971.61 489.6 761.8 21 503 21Zm0 864.3c-218.53 0-395.69-177.16-395.69-395.69 0-135.76 68.37-255.55 172.55-326.8A393.82 393.82 0 0 1 503 93.91c218.53 0 395.69 177.15 395.69 395.69a397.6 397.6 0 0 1-8.27 80.88C853.09 750.23 693.81 885.29 503 885.29Z" style="fill:#fff;fill-rule:evenodd"/>
</svg>
